<!--?xml version="1.0" encoding="UTF-8" standalone="no"?-->
<!-- Created with Inkscape (http://www.inkscape.org/) -->

<svg version="1.1" id="svg1" width="900.87012" height="334.29755" viewBox="0 0 900.87012 334.29755" xmlns="http://www.w3.org/2000/svg" xmlns:svg="http://www.w3.org/2000/svg" style="">
  <defs id="defs1"></defs>
  <path style="display: inline; fill: none; stroke: rgb(0, 0, 0); stroke-width: 17.3333; stroke-linecap: round; stroke-opacity: 1;" d="m 356.23509,28.525342 c 8.62394,-36.4859024 -47.46285,74.749328 -31.84224,98.180248 6.6338,9.9507 44.44646,-128.6957302 53.73378,-121.3985495 9.28732,7.2971805 -39.8028,98.1802495 -29.18872,106.8041895 10.61408,8.62394 42.42396,-100.06284 51.08026,-97.516869 11.27746,3.3169 -38.05766,95.945109 -29.8521,104.150669 9.28732,9.28732 40.94516,-115.8441588 47.09999,-111.4478494 l 4.64366,3.3169004 c 0,0 -49.09013,126.042209 -38.47605,132.676009 10.61408,6.6338 48.00992,-131.442017 58.37745,-125.378828 6.98998,4.087914 -43.92323,134.412718 -37.14929,138.646428 10.61408,6.6338 53.52393,-129.673891 61.69435,-117.418267 5.30704,7.960561 -40.46618,85.576027 -26.5352,90.219687" id="path29" class="wYQfQuOc_0"></path>
  <path style="display: inline; fill: none; stroke: rgb(0, 0, 0); stroke-width: 17.3333; stroke-linecap: round; stroke-opacity: 1;" d="m 306.48159,33.832383 c 7.29717,-9.287321 70.09139,-12.449202 147.27037,-3.98028 24.21736,2.657393 19.31535,103.632847 -23.88168,117.418267 C 388.31349,160.53234 333.01679,78.942227 318.42243,41.129564" id="path28" class="wYQfQuOc_1"></path>
  <path style="display: inline; fill: none; stroke: rgb(0, 0, 0); stroke-width: 17.3333; stroke-linecap: round; stroke-opacity: 1;" d="m 454.06996,197.95198 c -6.56713,26.26852 15.01058,95.69244 23.45403,128.52807" id="path31" class="wYQfQuOc_2"></path>
  <path style="display: inline; fill: none; stroke: rgb(0, 0, 0); stroke-width: 17.3333; stroke-linecap: round; stroke-opacity: 1;" d="m 350.87224,254.24165 c -30.02116,58.16599 31.32539,73.5349 135.0952,60.04231 165.89854,-21.57084 140.72416,-61.91863 91.93978,-101.32139" id="path30" class="wYQfQuOc_3"></path>
  <path style="display: inline; fill: none; stroke: rgb(0, 0, 0); stroke-width: 17.3333; stroke-linecap: round; stroke-opacity: 1;" d="M 670.01386,128.03235 C 740.33215,81.595747 825.90818,22.554922 896.88984,6.6338006" id="path26" class="wYQfQuOc_4"></path>
  <path style="display: inline; fill: none; stroke: rgb(0, 0, 0); stroke-width: 17.3333; stroke-linecap: round; stroke-opacity: 1;" d="M 599.03219,153.24079 C 700.31953,126.59045 742.78573,123.23294 850.50038,112.54697" id="path25" class="wYQfQuOc_5"></path>
  <path style="display: inline; fill: none; stroke: rgb(0, 0, 0); stroke-width: 17.3333; stroke-linecap: round; stroke-opacity: 1;" d="m 590.40825,183.0929 c 95.41765,15.43823 169.94246,24.02312 238.15344,35.15914" id="path24" class="wYQfQuOc_6"></path>
  <path style="display: inline; fill: none; stroke: rgb(0, 0, 0); stroke-width: 17.3333; stroke-linecap: round; stroke-opacity: 1;" d="m 269.3323,221.56894 c -15.92111,26.5352 -44.44646,80.93237 -55.72392,105.47743" id="path22" class="wYQfQuOc_7"></path>
  <path style="display: inline; fill: none; stroke: rgb(0, 0, 0); stroke-width: 17.3333; stroke-linecap: round; stroke-opacity: 1;" d="M 235.49992,211.61824 C 199.01401,225.54922 118.08165,251.42104 81.595747,266.0154" id="path23" class="wYQfQuOc_8"></path>
  <path style="display: inline; fill: none; stroke: rgb(0, 0, 0); stroke-width: 17.3333; stroke-linecap: round; stroke-opacity: 1;" d="M 8.8987218,119.68319 C 56.234455,117.80342 102.33441,169.27675 183.20672,180.1646" id="path20" class="wYQfQuOc_9"></path>
  <path style="display: inline; fill: none; stroke: rgb(0, 0, 0); stroke-width: 17.3333; stroke-linecap: round; stroke-opacity: 1;" d="m 169.16191,122.06193 c -19.23802,26.5352 -21.12342,88.12481 17.91127,108.79433 28.68642,15.18994 117.07351,47.33798 159.49245,30.53001 76.1193,-30.1613 108.77315,-77.41208 133.05815,-80.94689 32.7793,-4.7712 73.63519,61.03096 128.03235,47.09998 54.39717,-13.93098 84.24927,-78.94223 102.16053,-119.40841" id="path27" class="wYQfQuOc_10"></path>
<style data-made-with="vivus-instant">.wYQfQuOc_0{stroke-dasharray:1382 1384;stroke-dashoffset:1383;animation:wYQfQuOc_draw 666ms ease 0ms forwards;}.wYQfQuOc_1{stroke-dasharray:450 452;stroke-dashoffset:451;animation:wYQfQuOc_draw 666ms ease 33ms forwards;}.wYQfQuOc_2{stroke-dasharray:132 134;stroke-dashoffset:133;animation:wYQfQuOc_draw 666ms ease 66ms forwards;}.wYQfQuOc_3{stroke-dasharray:398 400;stroke-dashoffset:399;animation:wYQfQuOc_draw 666ms ease 99ms forwards;}.wYQfQuOc_4{stroke-dasharray:259 261;stroke-dashoffset:260;animation:wYQfQuOc_draw 666ms ease 133ms forwards;}.wYQfQuOc_5{stroke-dasharray:256 258;stroke-dashoffset:257;animation:wYQfQuOc_draw 666ms ease 166ms forwards;}.wYQfQuOc_6{stroke-dasharray:241 243;stroke-dashoffset:242;animation:wYQfQuOc_draw 666ms ease 199ms forwards;}.wYQfQuOc_7{stroke-dasharray:120 122;stroke-dashoffset:121;animation:wYQfQuOc_draw 666ms ease 233ms forwards;}.wYQfQuOc_8{stroke-dasharray:164 166;stroke-dashoffset:165;animation:wYQfQuOc_draw 666ms ease 266ms forwards;}.wYQfQuOc_9{stroke-dasharray:186 188;stroke-dashoffset:187;animation:wYQfQuOc_draw 666ms ease 299ms forwards;}.wYQfQuOc_10{stroke-dasharray:749 751;stroke-dashoffset:750;animation:wYQfQuOc_draw 666ms ease 333ms forwards;}@keyframes wYQfQuOc_draw{100%{stroke-dashoffset:0;}}@keyframes wYQfQuOc_fade{0%{stroke-opacity:1;}92.3076923076923%{stroke-opacity:1;}100%{stroke-opacity:0;}}</style></svg>
